<svg xmlns="http://www.w3.org/2000/svg" width="68" height="68" viewBox="0 0 68 68">
    <g fill="none">
        <path fill="#5AAAE7" d="M0 9.379L68 9.379 68 44.552 0 44.552z"/>
        <path fill="#3D9AE2" d="M68 9.38v35.172H0c30.769-3.884 54.157-14.91 68-35.173z"/>
        <path fill="#787680" d="M46.897 63.31c1.293.004 2.34 1.052 2.344 2.345-.01 1.291-1.054 2.335-2.344 2.345H21.103c-1.293-.004-2.34-1.052-2.344-2.345.01-1.29 1.054-2.335 2.344-2.345h25.794z"/>
        <path fill="#898890" d="M43.379 63.31L24.621 63.31 25.793 53.931 42.207 53.931z"/>
        <path fill="#C6C5CA" d="M68 44.552v4.69c-.007 2.586-2.103 4.682-4.69 4.689H4.69C2.103 53.924.007 51.828 0 49.241v-4.69h68z"/>
        <path fill="#FF5023" d="M68 4.69v4.69H0V4.69C.007 2.103 2.103.007 4.69 0h58.62C65.9 0 68 2.1 68 4.69z"/>
        <path fill="#787680" d="M42.5 56.276L25.5 56.276 25.793 53.931 42.207 53.931z"/>
        <path fill="#FFF" d="M23.448 31.655L23.448 38.69 14.069 38.69 14.069 29.31 23.448 29.31zM23.448 17.586L23.448 24.621 14.069 24.621 14.069 15.241 23.448 15.241z"/>
        <path fill="#0B9E6D" d="M19.931 36.345c-.31 0-.61-.124-.829-.344l-2.345-2.344 1.658-1.658 1.516 1.516 5.033-5.034 1.658 1.658-5.862 5.862c-.22.22-.518.344-.829.344z"/>
        <g fill="#1E81CE">
            <path d="M0 0L7.034 0 7.034 2.345 0 2.345zM9.379 0L18.759 0 18.759 2.345 9.379 2.345zM21.103 0L23.448 0 23.448 2.345 21.103 2.345zM0 4.69L14.069 4.69 14.069 7.034 0 7.034zM16.414 4.69L23.448 4.69 23.448 7.034 16.414 7.034zM0 14.069L11.724 14.069 11.724 16.414 0 16.414zM0 18.759L14.069 18.759 14.069 21.103 0 21.103zM16.414 18.759L23.448 18.759 23.448 21.103 16.414 21.103zM14.069 14.069L16.414 14.069 16.414 16.414 14.069 16.414zM18.759 14.069L23.448 14.069 23.448 16.414 18.759 16.414z" transform="translate(30.483 16.414)"/>
        </g>
        <path fill="#898890" d="M59.793 48.069L62.138 48.069 62.138 50.414 59.793 50.414z"/>
        <path fill="#CD2A00" d="M5.862 3.517L8.207 3.517 8.207 5.862 5.862 5.862zM10.552 3.517L12.897 3.517 12.897 5.862 10.552 5.862zM15.241 3.517L17.586 3.517 17.586 5.862 15.241 5.862z"/>
    </g>
</svg>
