<svg xmlns="http://www.w3.org/2000/svg" width="68" height="68" viewBox="0 0 68 68">
    <g fill="none">
        <path fill="#71D2F6" d="M57.448 11.724c-1.295 0-2.345-1.05-2.345-2.345V0H28.138c-2.59 0-4.69 2.1-4.69 4.69v51.586c0 2.59 2.1 4.69 4.69 4.69H63.31c2.59 0 4.69-2.1 4.69-4.69V11.724H57.448z"/>
        <path fill="#5EAFCD" d="M55.103 9.38c0 1.294 1.05 2.344 2.345 2.344H68L55.103 0v9.38z"/>
        <path fill="#2BB673" d="M44.552 28.138L60.966 28.138 60.966 42.207 44.552 42.207z"/>
        <g fill="#E6E7E8">
            <path d="M17.586 32.828H2.345c-.648 0-1.173-.525-1.173-1.173 0-.647.525-1.172 1.173-1.172h15.241c.648 0 1.173.525 1.173 1.172 0 .648-.525 1.173-1.173 1.173zM11.724 37.517h-9.38c-.647 0-1.172-.525-1.172-1.172 0-.648.525-1.173 1.173-1.173h9.38c.647 0 1.172.525 1.172 1.173 0 .647-.525 1.172-1.173 1.172zM18.759 7.034H1.172C.525 7.034 0 6.51 0 5.862 0 5.215.525 4.69 1.172 4.69H18.76c.647 0 1.172.525 1.172 1.172 0 .648-.525 1.172-1.172 1.172zM18.759 2.345H1.172C.525 2.345 0 1.82 0 1.172 0 .525.525 0 1.172 0H18.76c.647 0 1.172.525 1.172 1.172 0 .648-.525 1.173-1.172 1.173z" transform="translate(42.207 17.586)"/>
        </g>
        <path fill="#F1F2F2" d="M60.966 57.448H58.62c-.648 0-1.173-.525-1.173-1.172 0-.648.525-1.173 1.173-1.173h2.345c.647 0 1.172-.525 1.172-1.172v-2.345c0-.647.525-1.172 1.172-1.172.648 0 1.173.525 1.173 1.172v2.345c0 1.942-1.575 3.517-3.517 3.517z"/>
        <path fill="#E0E0E2" d="M44.552 18.759V63.31c0 2.59-2.1 4.69-4.69 4.69H4.69C2.1 68 0 65.9 0 63.31V11.724c0-2.59 2.1-4.69 4.69-4.69h26.965v9.38c.004 1.293 1.052 2.34 2.345 2.345h10.552z"/>
        <path fill="#C6C5CA" d="M34 18.759h10.552L31.655 7.034v9.38c.004 1.293 1.052 2.34 2.345 2.345z"/>
        <path fill="#71D9B3" d="M7.034 35.172L37.517 35.172 37.517 49.241 7.034 49.241zM7.034 14.069L18.759 14.069 18.759 21.103 7.034 21.103z"/>
        <path fill="#ACABB1" d="M37.517 31.655H7.034c-.647 0-1.172-.525-1.172-1.172 0-.648.525-1.173 1.172-1.173h30.483c.648 0 1.173.525 1.173 1.173 0 .647-.525 1.172-1.173 1.172zM37.517 26.966H7.034c-.647 0-1.172-.525-1.172-1.173 0-.647.525-1.172 1.172-1.172h30.483c.648 0 1.173.525 1.173 1.172 0 .648-.525 1.173-1.173 1.173zM36.345 57.448H7.035c-.648 0-1.173-.525-1.173-1.172 0-.648.525-1.173 1.172-1.173h29.31c.648 0 1.173.525 1.173 1.173 0 .647-.525 1.172-1.172 1.172zM30.483 62.138H7.034c-.647 0-1.172-.525-1.172-1.172 0-.648.525-1.173 1.172-1.173h23.449c.647 0 1.172.525 1.172 1.173 0 .647-.525 1.172-1.172 1.172z"/>
        <path fill="#F1F2F2" d="M37.517 64.483h-2.345c-.647 0-1.172-.525-1.172-1.173 0-.647.525-1.172 1.172-1.172h2.345c.648 0 1.173-.525 1.173-1.172V58.62c0-.648.525-1.173 1.172-1.173.648 0 1.172.525 1.172 1.173v2.345c0 1.942-1.574 3.517-3.517 3.517z"/>
    </g>
</svg>
