<svg xmlns="http://www.w3.org/2000/svg" width="89" height="66" viewBox="0 0 89 66">
    <g fill="none">
        <path fill="#515262" d="M83.107 60.667V6.93c0-3.07-2.489-5.559-5.56-5.559H13.12c-3.07 0-5.56 2.489-5.56 5.56v53.735h75.548z" transform="translate(-1 -1)"/>
        <path fill="#373842" d="M77.548 1.372H73.02v14.417c0 15.918-12.903 28.821-28.82 28.821H7.56v16.057h75.547V6.93c0-3.07-2.49-5.559-5.56-5.559z" transform="translate(-1 -1)"/>
        <path fill="#EFF2FA" d="M13.534 47.779V8.758c0-.559.454-1.012 1.013-1.012h62.178c.56 0 1.012.453 1.012 1.012v39.02c0 .559-.453 1.012-1.012 1.012H14.547c-.56 0-1.013-.453-1.013-1.012z" transform="translate(-1 -1)"/>
        <g fill="#D7DEED">
            <path d="M1.088 41.176h62.179c.559 0 1.012-.453 1.012-1.012V1.144c0-.558-.453-1.012-1.012-1.012h-3.704v8.043c0 15.917-12.904 28.82-28.821 28.82H.076v3.17c0 .558.453 1.011 1.012 1.011zM21.935 47.444H40.775V54.032000000000004H21.935z" transform="translate(-1 -1) translate(13.458 7.615)"/>
        </g>
        <path fill="#EFF2FA" d="M53.112 55.06c0 2.654-2.152 4.806-4.806 4.806h-5.992c-2.654 0-4.806-2.152-4.806-4.807H2.08c-.416 0-.753.338-.753.753v2.058c0 4.641 3.763 8.404 8.404 8.404h71.203c4.641 0 8.404-3.763 8.404-8.404v-2.058c0-.415-.337-.753-.753-.753H53.112z" transform="translate(-1 -1)"/>
        <path fill="#D7DEED" d="M88.586 55.06H79.64c.415 0 .753.337.753.752v2.058c0 4.641-3.763 8.404-8.404 8.404h8.945c4.641 0 8.404-3.763 8.404-8.404v-2.058c0-.415-.337-.753-.753-.753z" transform="translate(-1 -1)"/>
        <path fill="#FF6F66" d="M37.943 48.7h-5.615v-6.826c0-.616.5-1.116 1.116-1.116h3.383c.617 0 1.116.5 1.116 1.116V48.7z" transform="translate(-1 -1)"/>
        <path fill="#FFBF6E" d="M48.693 48.7h-5.615V36.178c0-.616.5-1.116 1.116-1.116h3.383c.616 0 1.116.5 1.116 1.116V48.7z" transform="translate(-1 -1)"/>
        <path fill="#53DB7D" d="M53.827 48.7V26.39c0-.616.5-1.116 1.116-1.116h3.383c.617 0 1.116.5 1.116 1.116V48.7h-5.615z" transform="translate(-1 -1)"/>
        <path d="M13.534 14.786c-.733 0-1.328.595-1.328 1.329V48.79c0 .734.595 1.328 1.328 1.328h64.203c.734 0 1.328-.594 1.328-1.328V7.747c0-.734-.594-1.328-1.328-1.328H13.534c-.733 0-1.328.594-1.328 1.328v3.1c0 .733.595 1.327 1.328 1.327.734 0 1.328-.594 1.328-1.328V9.075H76.41v38.388H51.138v-20.98c0-1.348-1.097-2.444-2.445-2.444H45.31c-1.348 0-2.444 1.096-2.444 2.444v2.496c0 .733.595 1.328 1.328 1.328.734 0 1.328-.595 1.328-1.328v-2.284h2.96v20.768h-2.96V34.236c0-.733-.594-1.328-1.328-1.328-.733 0-1.328.595-1.328 1.328v13.227h-2.478V36.27c0-1.348-1.096-2.444-2.444-2.444h-3.383c-1.348 0-2.444 1.096-2.444 2.444v11.193h-2.478v-5.498c0-1.348-1.097-2.444-2.444-2.444H23.81c-1.347 0-2.444 1.096-2.444 2.444v5.498h-6.505V16.115c0-.734-.594-1.329-1.328-1.329zm21.238 21.696h2.96v10.981h-2.96V36.482zm-10.75 5.695h2.96v5.286h-2.96v-5.286z" transform="translate(-1 -1)"/>
        <path d="M89.339 53.732H53.112c-.733 0-1.328.594-1.328 1.328 0 1.918-1.56 3.478-3.479 3.478h-5.99c-1.919 0-3.48-1.56-3.48-3.478 0-.734-.594-1.328-1.328-1.328H8.887v-46.8c0-2.334 1.899-4.232 4.232-4.232h64.429c2.333 0 4.23 1.898 4.23 4.231v42.83c0 .733.596 1.328 1.329 1.328s1.328-.595 1.328-1.329V6.931c0-3.797-3.09-6.887-6.887-6.887H13.119c-3.798 0-6.887 3.09-6.887 6.887v46.8H1.328C.595 53.732 0 54.327 0 55.06v2.81c0 5.366 4.366 9.732 9.732 9.732h71.203c5.366 0 9.732-4.366 9.732-9.732v-2.81c0-.734-.595-1.328-1.328-1.328zM88.01 57.87c0 3.902-3.174 7.076-7.075 7.076H9.732c-3.902 0-7.076-3.174-7.076-7.076v-1.482h33.668c.608 2.746 3.063 4.807 5.99 4.807h5.991c2.927 0 5.382-2.06 5.99-4.807H88.01v1.482z" transform="translate(-1 -1)"/>
        <path fill="#373842" d="M49.03 19.724c-.518-.519-1.36-.519-1.878 0L31.39 35.487c-.519.519-.519 1.36 0 1.878.26.26.6.39.94.39.339 0 .679-.13.938-.39l14.824-14.824 2.07 2.07c.518.518 1.36.518 1.878 0l6.075-6.076v.724c0 .734.595 1.328 1.329 1.328.733 0 1.328-.594 1.328-1.328v-3.93c0-.724-.605-1.329-1.328-1.329H55.27c-.733 0-1.328.594-1.328 1.328 0 .734.595 1.328 1.328 1.328h.965L51.1 21.793l-2.07-2.07z" transform="translate(-1 -1)"/>
    </g>
</svg>
