<svg xmlns="http://www.w3.org/2000/svg" width="258" height="43" viewBox="0 0 258 43">
    <g fill="none">
        <path fill="#009B67" d="M34.593 9.967L34.593 28.914 39.061 28.914 38.174 29.508 31.841 36.331 25.438 29.508 24.551 28.914 29.019 28.914 29.019 24.114 17.449 24.114 17.449 28.063 31.806 42.887 46.163 28.063 46.163 24.114 39.397 24.114 39.397 5.163 25.145 5.163 29.797 9.967z"/>
        <path fill="#009B67" d="M11.876 33.134L11.876 14.186 7.403 14.186 8.29 13.597 14.623 6.77 21.031 13.597 21.917 14.186 17.449 14.186 17.449 18.991 29.019 18.991 29.019 15.043 14.663.218.301 15.043.301 18.991 7.071 18.991 7.071 37.938 21.319 37.938 16.667 33.138zM81.175 37.999L81.175 5.219 75.483 5.219 75.483 18.179 61.821 18.179 61.821 5.219 56.112 5.219 56.112 37.999 61.821 37.999 61.821 24.009 75.492 24.009 75.492 37.999z"/>
        <g>
            <path fill="#009B67" d="M11.029 10.92C4.59 10.92.109 15.65.109 22.414c0 7.347 4.333 11.732 11.592 11.732 4.11 0 6.316-1.018 8.054-1.987l-1.699-3.403c-1.78.992-3.789 1.5-5.826 1.472-1.909 0-3.42-.607-4.49-1.804-.957-1.074-1.525-2.564-1.678-4.429l-.035-.388h14.501c.04-.642.07-1.223.07-1.795 0-7.024-3.398-10.89-9.574-10.89m-5.106 9.173l.066-.415c.144-1.342.689-2.61 1.563-3.638.883-.912 2.113-1.404 3.381-1.35 2.712 0 4.237 1.79 4.294 5.036v.367H5.918zM25.049 11.487H30.608999999999998V33.592H25.049zM27.831.402c-.896-.028-1.765.305-2.412.926-.647.62-1.016 1.475-1.025 2.371-.003.909.36 1.78 1.007 2.417.646.637 1.522.988 2.43.973.913.014 1.794-.335 2.45-.971.655-.636 1.03-1.506 1.044-2.419-.015-.904-.395-1.763-1.052-2.384-.658-.62-1.538-.95-2.442-.913M46.993 15.41c2.354 0 3.402 1.179 3.402 3.826v14.352h5.512v-15.62c0-3.214-1.122-7.044-6.482-7.044-2.71-.027-5.284 1.186-6.988 3.293l-.629.743v-3.495h-5.377v22.101h5.5v-15.06l.07-.092c.523-.707 2.423-3.005 4.974-3.005M59.742 30.683L59.742 33.588 76.645 33.588 76.645 29.622 66.346 29.622 76.553 14.628 76.553 11.487 60.214 11.487 60.214 15.457 69.993 15.457 69.91 15.58zM89.713 10.92c-6.438 0-10.919 4.73-10.919 11.495 0 7.347 4.333 11.732 11.592 11.732 4.106 0 6.316-1.018 8.054-1.987l-1.699-3.403c-1.77.984-3.766 1.49-5.791 1.468-1.91 0-3.42-.607-4.49-1.804-.961-1.075-1.525-2.564-1.678-4.429l-.035-.389h14.484c.043-.642.074-1.223.074-1.795 0-7.023-3.402-10.889-9.574-10.889m-5.106 9.173l.066-.415c.144-1.343.689-2.61 1.563-3.639.883-.912 2.113-1.403 3.38-1.35 2.713 0 4.238 1.791 4.294 5.037v.367h-9.303z" transform="translate(85.608 4.368)"/>
            <path fill="#1D1D1D" d="M111.923 7.67l2.56-6.853h-1.673l-1.267 4.114h-.096v-.03L110.045.817h-1.747l2.333 6.07-.236.656c-.254.69-.586 1.114-1.463 1.114-.191.009-.382-.009-.568-.053l-.232 1.267c.3.077.608.113.917.105 1.682 0 2.324-.847 2.87-2.306M114.911 3.931c0 1.603.957 3.219 3.088 3.219 2.131 0 3.114-1.695 3.114-3.267 0-1.572-.97-3.206-3.127-3.206-2.158 0-3.058 1.638-3.058 3.254m4.473 0c0 1.31-.459 2-1.358 2-.9 0-1.385-.725-1.385-2.048 0-1.324.437-2.014 1.31-2.014.874 0 1.424.752 1.424 2.062M124.214 7.133c.778.007 1.514-.354 1.983-.974l.066-.083v.104c.018.268.057.534.118.795h1.594c-.108-.576-.16-1.16-.157-1.747V.817h-1.625v4.162l-.022.026c-.294.448-.777.736-1.31.782-.603 0-.874-.305-.874-.987V.817h-1.603v4.328c0 .904.319 1.988 1.83 1.988M132.622 2.092c.217-.009.432.033.63.122l.388-1.406c-.251-.112-.525-.163-.8-.148-.653.025-1.242.4-1.541.982l-.075.127V.817H129.6v6.171h1.624v-3.93c.258-.55.79-.92 1.394-.97M114.286 20.681v-4.333c0-.904-.314-1.982-1.83-1.982-.757-.007-1.476.332-1.952.921l-.07.079v-.848h-1.59v6.163h1.625v-4.167c.299-.445.778-.737 1.31-.799.603 0 .874.306.874.987v3.988l1.633-.009zM121.288 17.401c0-1.957-.952-3.057-2.678-3.057-1.795 0-3.057 1.31-3.057 3.201 0 2.014 1.236 3.267 3.228 3.267.8.032 1.592-.17 2.28-.58l-.511-1.014-.048.022c-.477.27-1.016.409-1.564.402-.96 0-1.542-.59-1.63-1.651v-.044h3.932c0-.192.026-.371.026-.55m-4.005-.524v-.048c.14-.874.576-1.31 1.31-1.31.734 0 1.1.47 1.114 1.31v.039l-2.424.009zM125.031 20.834c.526.013 1.046-.104 1.516-.34l-.376-1.189c-.245.133-.517.204-.795.21-.555 0-.668-.367-.668-.922v-2.87h1.463v-1.187h-1.463V12.71h-1.612v1.808h-1v1.206h1v3.219c0 1.31.616 1.909 1.935 1.909M134.417 14.518L133.443 18.515 133.356 18.515 132.29 14.518 130.779 14.518 129.713 18.493 129.626 18.493 128.678 14.518 126.931 14.518 128.674 20.681 130.154 20.681 131.434 16.501 131.522 16.501 132.801 20.681 134.278 20.681 136.038 14.518zM136.58 17.62c0 1.598.956 3.214 3.087 3.214 2.132 0 3.115-1.695 3.115-3.267 0-1.572-.97-3.201-3.128-3.201-2.157 0-3.057 1.633-3.057 3.253m4.472 0c0 1.31-.458 2-1.358 2-.9 0-1.385-.729-1.385-2.052s.437-2.013 1.31-2.013c.874 0 1.425.75 1.425 2.065M147.127 15.798c.216-.01.432.03.63.118l.388-1.406c-.252-.107-.525-.156-.8-.144-.653.021-1.243.396-1.541.978l-.074.127v-.953h-1.63v6.163h1.63v-3.93c.256-.55.788-.92 1.393-.97M154.666 20.681L152.329 17.257 154.605 14.518 152.849 14.518 150.726 17.113 150.726 11.531 149.102 11.531 149.102 20.681 150.726 20.681 150.726 17.536 152.788 20.681zM156.702 11.684c-.261-.007-.514.09-.702.271-.188.18-.295.429-.299.69 0 .264.105.518.293.704.188.185.443.287.708.283.55.005 1.001-.437 1.008-.987-.014-.544-.465-.974-1.008-.961M155.88 14.518H157.518V20.681H155.88zM164.839 20.681v-4.333c0-.904-.32-1.982-1.835-1.982-.758-.007-1.479.332-1.957.921l-.07.079v-.848h-1.585v6.163h1.625v-4.167c.299-.445.778-.737 1.31-.799.603 0 .874.306.874.987v3.988l1.638-.009zM168.67 23.743c2.091 0 3.55-.965 3.55-2.345 0-1.638-1.564-1.713-2.817-1.774h-.092c-.921-.039-1.358-.126-1.358-.528.018-.184.126-.348.288-.437h.026c.231.041.465.063.7.066 1.62 0 2.62-.835 2.62-2.184.002-.323-.09-.64-.262-.913l-.04-.061h.93V14.53h-2.24c-.354-.105-.722-.155-1.092-.148-1.625 0-2.677.847-2.677 2.184-.02.784.425 1.506 1.135 1.839v.074c-.442.205-.739.632-.777 1.118-.003.407.23.779.598.952v.074c-.537.236-1.183.682-1.183 1.464 0 1.065.956 1.65 2.69 1.65m.219-8.342c.463-.014.888.254 1.074.679.186.424.097.918-.227 1.25-.324.331-.816.433-1.245.257-.428-.177-.706-.596-.703-1.059-.032-.303.072-.604.285-.822.213-.218.512-.33.816-.305m-.778 5.464c.28.04.59.066.874.088h.14c.873.048 1.463.078 1.463.725 0 .646-.708 1-1.747 1-.83 0-1.31-.319-1.31-.874.018-.386.225-.739.554-.943M108.582 30.574c0 1.961 1.254 3.228 3.189 3.228.694.03 1.38-.16 1.96-.542l-.489-1.065c-.394.24-.848.368-1.31.367-1 0-1.603-.765-1.603-2.04 0-1.276.585-1.974 1.568-1.974.455-.011.903.112 1.289.353l.52-1.096c-.564-.33-1.209-.494-1.861-.476-1.97 0-3.241 1.275-3.241 3.245M114.387 30.6c0 1.603.956 3.22 3.088 3.22 2.131 0 3.114-1.695 3.114-3.268 0-1.572-.97-3.206-3.127-3.206-2.158 0-3.058 1.638-3.058 3.254m4.473 0c0 1.31-.437 2.005-1.358 2.005-.922 0-1.385-.73-1.385-2.053s.437-2.013 1.31-2.013c.874 0 1.424.751 1.424 2.061M128.342 28.692c.55 0 .786.297.786.987v3.983h1.625v-4.328c0-1.31-.585-1.988-1.747-1.988-.772.005-1.498.364-1.97.974l-.044.048v-.056c-.245-.64-.887-1.035-1.568-.966-.72.006-1.399.343-1.839.913l-.07.075v-.817h-1.585v6.158h1.625V29.5l.035-.048c.255-.416.686-.69 1.17-.747.516 0 .769.323.769.987v3.983h1.625v-4.24c.273-.405.711-.669 1.197-.721M135.584 33.82c1.624 0 2.756-1.337 2.756-3.241 0-2.053-.913-3.233-2.499-3.233-.66-.018-1.29.277-1.699.795l-.07.088v-.712h-1.59v8.954h1.608v-3.136l.07.056c.398.315.9.471 1.406.437m-1.476-1.695v-2.839c.281-.395.73-.638 1.214-.66.825 0 1.28.695 1.28 1.953s-.503 2-1.385 2c-.41.006-.806-.151-1.1-.436l-.01-.018zM141.109 33.82c.666-.001 1.298-.297 1.725-.809l.061-.078v.1c.011.212.042.423.092.63h1.598c-.116-.595-.172-1.2-.166-1.805v-2.24c0-1.59-.742-2.272-2.472-2.272-.904-.027-1.786.285-2.472.874l.699.974c.447-.365 1.004-.566 1.581-.572.747 0 1.053.266 1.053.913v.397h-.258c-1.594 0-3.293.572-3.293 2.184 0 1.026.738 1.717 1.843 1.717m1.45-2.922h.275v1.179c-.287.359-.723.567-1.183.563-.2.025-.402-.036-.553-.169-.152-.133-.24-.324-.242-.525 0-.695.598-1.062 1.747-1.062M151.56 33.662v-4.328c0-.904-.318-1.988-1.83-1.988-.758-.008-1.48.331-1.956.922l-.07.083v-.834h-1.585v6.158h1.624v-4.17c.3-.445.779-.736 1.31-.8.603 0 .874.306.874.987v3.983l1.634-.013zM158.829 27.517h-1.669l-1.27 4.114h-.097v-.03l-1.41-4.084h-1.748l2.333 6.07-.236.656c-.254.69-.586 1.114-1.46 1.114-.191.009-.384-.009-.571-.053l-.232 1.267c.3.077.608.113.917.105 1.682 0 2.324-.847 2.874-2.306l2.569-6.853z" transform="translate(85.608 4.368)"/>
        </g>
    </g>
</svg>
