<svg xmlns="http://www.w3.org/2000/svg" width="258" height="43" viewBox="0 0 258 43">
    <g fill="none">
        <path fill="#009B67" d="M34.593 9.967L34.593 28.914 39.061 28.914 38.174 29.508 31.841 36.331 25.438 29.508 24.551 28.914 29.019 28.914 29.019 24.114 17.449 24.114 17.449 28.063 31.806 42.887 46.163 28.063 46.163 24.114 39.397 24.114 39.397 5.163 25.145 5.163 29.797 9.967z"/>
        <path fill="#009B67" d="M11.876 33.134L11.876 14.186 7.403 14.186 8.29 13.597 14.623 6.77 21.031 13.597 21.917 14.186 17.449 14.186 17.449 18.991 29.019 18.991 29.019 15.043 14.663.218.301 15.043.301 18.991 7.071 18.991 7.071 37.938 21.319 37.938 16.667 33.138zM81.175 37.999L81.175 5.219 75.483 5.219 75.483 18.179 61.821 18.179 61.821 5.219 56.112 5.219 56.112 37.999 61.821 37.999 61.821 24.009 75.492 24.009 75.492 37.999z"/>
        <g>
            <path fill="#009B67" d="M11.029 10.92C4.59 10.92.109 15.65.109 22.414c0 7.347 4.333 11.732 11.592 11.732 4.11 0 6.316-1.018 8.054-1.987l-1.699-3.403c-1.78.992-3.789 1.5-5.826 1.472-1.909 0-3.42-.607-4.49-1.804-.957-1.074-1.525-2.564-1.678-4.429l-.035-.388h14.501c.04-.642.07-1.223.07-1.795 0-7.024-3.398-10.89-9.574-10.89m-5.106 9.173l.066-.415c.144-1.342.689-2.61 1.563-3.638.883-.912 2.113-1.404 3.381-1.35 2.712 0 4.237 1.79 4.294 5.036v.367H5.918zM25.049 11.487H30.608999999999998V33.592H25.049zM27.831.402c-.896-.028-1.765.305-2.412.926-.647.62-1.016 1.475-1.025 2.371-.003.909.36 1.78 1.007 2.417.646.637 1.522.988 2.43.973.913.014 1.794-.335 2.45-.971.655-.636 1.03-1.506 1.044-2.419-.015-.904-.395-1.763-1.052-2.384-.658-.62-1.538-.95-2.442-.913M46.993 15.41c2.354 0 3.402 1.179 3.402 3.826v14.352h5.512v-15.62c0-3.214-1.122-7.044-6.482-7.044-2.71-.027-5.284 1.186-6.988 3.293l-.629.743v-3.495h-5.377v22.101h5.5v-15.06l.07-.092c.523-.707 2.423-3.005 4.974-3.005M59.742 30.683L59.742 33.588 76.645 33.588 76.645 29.622 66.346 29.622 76.553 14.628 76.553 11.487 60.214 11.487 60.214 15.457 69.993 15.457 69.91 15.58zM89.713 10.92c-6.438 0-10.919 4.73-10.919 11.495 0 7.347 4.333 11.732 11.592 11.732 4.106 0 6.316-1.018 8.054-1.987l-1.699-3.403c-1.77.984-3.766 1.49-5.791 1.468-1.91 0-3.42-.607-4.49-1.804-.961-1.075-1.525-2.564-1.678-4.429l-.035-.389h14.484c.043-.642.074-1.223.074-1.795 0-7.023-3.402-10.889-9.574-10.889m-5.106 9.173l.066-.415c.144-1.343.689-2.61 1.563-3.639.883-.912 2.113-1.403 3.38-1.35 2.713 0 4.238 1.791 4.294 5.037v.367h-9.303z" transform="translate(85.608 4.368)"/>
            <path fill="#FFF" d="M154.382 27.517l1.411 4.084v.03h.096l1.271-4.114h1.669l-2.569 6.853c-.55 1.459-1.192 2.306-2.874 2.306-.309.008-.617-.028-.917-.105l.232-1.267c.187.044.38.062.572.053.873 0 1.205-.424 1.459-1.114l.236-.655-2.333-6.071h1.747zm-18.54-.17c1.585 0 2.498 1.179 2.498 3.232 0 1.904-1.132 3.24-2.756 3.24l-.018.01c-.507.033-1.008-.123-1.406-.438l-.07-.056v3.136h-1.608v-8.954h1.59v.712l.07-.088c.409-.518 1.039-.813 1.7-.795zm6.105 0c1.73 0 2.472.68 2.472 2.27v2.241c-.006.606.05 1.21.166 1.804h-1.598c-.05-.206-.08-.417-.092-.629v-.1l-.061.078c-.427.512-1.059.808-1.725.808l-.009.014c-1.105 0-1.843-.69-1.843-1.717 0-1.612 1.699-2.184 3.293-2.184h.258v-.397c0-.647-.306-.913-1.053-.913-.577.006-1.134.207-1.581.572l-.699-.974c.686-.59 1.568-.901 2.472-.874zm-24.485 0c2.157 0 3.127 1.633 3.127 3.205 0 1.573-.983 3.267-3.114 3.267-2.132 0-3.088-1.616-3.088-3.219h.017c0-1.616.9-3.254 3.058-3.254zm-5.617-.018c.652-.018 1.297.147 1.86.476l-.52 1.096c-.385-.241-.833-.364-1.288-.353-.983 0-1.568.698-1.568 1.974 0 1.275.603 2.04 1.603 2.04.462 0 .916-.126 1.31-.367l.49 1.065c-.581.382-1.267.571-1.961.542-1.935 0-3.189-1.267-3.189-3.228h.022c0-1.97 1.271-3.245 3.24-3.245zm37.886.017c1.51 0 1.83 1.084 1.83 1.988v4.328l-1.634.013v-3.983c0-.681-.27-.987-.873-.987-.532.064-1.01.355-1.31.8v4.17h-1.625v-6.158h1.585v.834l.07-.083c.476-.59 1.198-.93 1.957-.922zm-24.307 0c.68-.069 1.323.327 1.568.966v.056l.044-.048c.472-.61 1.198-.97 1.97-.974 1.161 0 1.747.677 1.747 1.988v4.328h-1.625V29.68c0-.69-.236-.987-.786-.987l.009.022c-.486.052-.924.316-1.197.72v4.241h-1.625v-3.983c0-.664-.253-.987-.769-.987-.484.056-.915.331-1.17.747l-.035.048v4.175h-1.625v-6.158h1.585v.817l.07-.075c.44-.57 1.119-.907 1.84-.913zm17.17 3.551c-1.149 0-1.747.367-1.747 1.062.002.201.09.392.242.525.151.133.353.194.553.17.46.003.896-.205 1.183-.564v-1.18h-.275zm-25.15-2.358c-.873 0-1.31.69-1.31 2.013 0 1.324.463 2.053 1.385 2.053.921 0 1.358-.694 1.358-2.005-.009-1.31-.56-2.061-1.433-2.061zm17.86.096c-.485.02-.933.264-1.214.66v2.838l.008.018c.295.285.691.442 1.101.437.882 0 1.385-.743 1.385-2 0-1.259-.455-1.953-1.28-1.953zm33.58-14.252c.369-.007.737.043 1.091.148h2.24v1.036h-.93l.04.06c.173.274.264.59.262.914 0 1.35-1 2.184-2.62 2.184-.235-.003-.469-.025-.7-.066h-.026c-.162.09-.27.253-.288.437 0 .402.437.489 1.358.528h.092c1.253.061 2.817.136 2.817 1.774 0 1.38-1.459 2.345-3.55 2.345-1.735-.004-2.691-.59-2.691-1.655 0-.782.646-1.228 1.183-1.464v-.074l-.117-.065c-.3-.191-.484-.525-.481-.887.038-.486.335-.913.777-1.118v-.074l-.138-.072c-.63-.358-1.016-1.035-.997-1.767 0-1.337 1.052-2.184 2.677-2.184zm-.8 6.473c-.329.204-.536.557-.555.943 0 .555.48.874 1.31.874 1.04 0 1.748-.354 1.748-1 0-.647-.59-.677-1.464-.725h-.14c-.283-.022-.593-.048-.873-.088zm-43.376-8.146v1.826h1.463v1.188h-1.463v2.87c0 .554.113.921.668.921.278-.006.55-.077.795-.21l.376 1.188c-.47.237-.99.354-1.516.341v.018c-1.319 0-1.935-.599-1.935-1.91v-3.218h-1v-1.206h1V12.71h1.612zm14.946 1.656c2.158 0 3.128 1.629 3.128 3.201s-.983 3.267-3.115 3.267c-2.131 0-3.088-1.616-3.088-3.215h.018c0-1.62.9-3.253 3.057-3.253zm-21.044-.022c1.726 0 2.678 1.1 2.678 3.057l-.022-.004c0 .179-.026.358-.026.55h-3.931v.044c.087 1.061.668 1.65 1.629 1.65.548.008 1.087-.131 1.564-.401l.048-.022.51 1.013c-.687.41-1.479.613-2.28.581-1.99 0-3.227-1.253-3.227-3.267 0-1.891 1.262-3.201 3.057-3.201zm44.394.022c1.516 0 1.835 1.078 1.835 1.982v4.333l-1.638.009v-3.988c0-.681-.271-.987-.874-.987-.532.062-1.011.354-1.31.8v4.166h-1.625v-6.163h1.586v.848l.07-.079c.477-.59 1.198-.928 1.956-.921zm-50.548 0c1.516 0 1.83 1.078 1.83 1.982v4.333l-1.633.009v-3.988c0-.681-.271-.987-.874-.987-.532.062-1.011.354-1.31.8v4.166h-1.625v-6.163h1.59v.848l.07-.079c.476-.589 1.195-.928 1.952-.921zm38.27-2.835v5.582l2.123-2.595h1.756l-2.276 2.739 2.337 3.424h-1.878l-2.062-3.145v3.145h-1.624v-9.15h1.624zm6.792 2.987v6.163h-1.638v-6.163h1.638zm-10.172-.152c.274-.012.547.037.8.144l-.39 1.406c-.197-.087-.413-.128-.629-.118l-.004-.017c-.605.05-1.137.42-1.393.97v3.93h-1.63v-6.163h1.63v.953l.074-.127c.298-.582.888-.957 1.542-.978zm-18.668.152l.948 3.975h.087l1.066-3.975h1.511l1.066 3.997h.087l.974-3.997h1.62l-1.76 6.163h-1.476l-1.28-4.18h-.087l-1.28 4.18h-1.48l-1.743-6.163h1.747zm10.959 1.036c-.874 0-1.31.69-1.31 2.013s.484 2.053 1.384 2.053c.9 0 1.358-.69 1.358-2-.008-1.315-.559-2.066-1.432-2.066zm29.25-.158c-.303-.025-.602.087-.815.305-.213.218-.317.52-.285.822-.003.463.275.882.703 1.059.429.176.921.074 1.245-.257.324-.332.413-.826.227-1.25-.186-.425-.611-.693-1.074-.679zm-50.316.118c-.734 0-1.17.437-1.31 1.31v.049l2.424-.01v-.038c-.013-.84-.38-1.31-1.114-1.31zm38.13-3.83c.544-.013.995.417 1.01.96-.008.551-.459.993-1.01.988-.264.004-.519-.098-.707-.283-.188-.186-.294-.44-.293-.704.004-.261.111-.51.3-.69.187-.18.44-.278.7-.271zM110.046.817l1.402 4.084v.03h.096L112.81.817h1.673l-2.564 6.853c-.546 1.459-1.188 2.306-2.87 2.306-.309.008-.617-.028-.917-.105l.232-1.267c.186.044.377.062.568.053.877 0 1.21-.424 1.463-1.114l.236-.655-2.333-6.071h1.747zm7.94-.14c2.159 0 3.128 1.634 3.128 3.206S120.13 7.15 118 7.15s-3.088-1.616-3.088-3.219h.017c0-1.616.9-3.254 3.058-3.254zm6.002.14V4.8c0 .682.27.987.874.987.533-.046 1.016-.334 1.31-.782l.022-.026V.817h1.625v4.411c-.003.586.05 1.171.157 1.747h-1.594c-.06-.261-.1-.527-.118-.795v-.104l-.066.083c-.469.62-1.205.981-1.983.974-1.511 0-1.83-1.084-1.83-1.988V.817h1.603zm8.854-.157c.274-.015.548.036.799.148l-.389 1.406c-.197-.089-.412-.13-.629-.122-.609.046-1.14.416-1.398.965v3.931H129.6V.817h1.624v.952l.075-.127c.299-.582.888-.957 1.542-.982zm-14.873 1.21c-.873 0-1.31.69-1.31 2.013s.485 2.048 1.385 2.048 1.358-.69 1.358-2c-.009-1.31-.56-2.062-1.433-2.062z" transform="translate(85.608 4.368)"/>
        </g>
    </g>
</svg>
